<svg width="15405" height="3559" viewBox="0 0 15405 3559" fill="none" xmlns="http://www.w3.org/2000/svg">
<path d="M5592.08 2730.38C5421.18 2730.38 5269.76 2689.28 5135.64 2607.08C5001.52 2524.88 4895.52 2412.39 4819.81 2271.79C4741.94 2129.01 4703 1968.94 4703 1789.39C4703 1609.85 4741.94 1447.61 4819.81 1307C4897.69 1166.39 5003.68 1053.9 5135.64 973.865C5267.6 893.827 5423.35 852.727 5596.4 852.727C5752.15 852.727 5892.76 883.012 6018.23 943.581C6145.85 1004.15 6247.52 1090.68 6323.24 1198.84L6171.81 1384.87C6128.55 1326.47 6074.47 1276.71 6013.9 1233.45C5953.33 1190.19 5886.27 1155.57 5817.05 1131.78C5745.66 1107.98 5676.44 1095.01 5607.22 1095.01C5483.92 1095.01 5375.76 1125.29 5278.41 1185.86C5181.07 1246.43 5105.36 1328.63 5049.11 1432.46C4992.87 1536.3 4964.75 1655.27 4964.75 1789.39C4964.75 1923.51 4992.87 2042.49 5049.11 2148.48C5105.36 2254.48 5183.23 2336.68 5278.41 2395.09C5375.76 2455.66 5483.92 2485.94 5602.89 2485.94C5672.11 2485.94 5739.17 2475.13 5806.23 2453.49C5873.29 2431.86 5936.02 2399.41 5996.59 2358.31C6057.16 2317.21 6111.24 2265.3 6163.16 2202.56L6314.58 2388.6C6236.71 2492.43 6130.71 2574.63 5998.76 2637.37C5866.8 2700.1 5732.68 2730.38 5592.08 2730.38Z" fill="#0D659D"/>
<path d="M8190.08 2721.3C8010.53 2721.3 7850.46 2682.36 7709.85 2604.49C7571.4 2526.61 7461.08 2416.29 7383.21 2275.68C7305.33 2135.07 7266.39 1972.83 7266.39 1791.12C7266.39 1650.52 7288.02 1522.89 7331.29 1408.24C7374.55 1293.59 7437.29 1194.08 7517.32 1109.72C7597.36 1025.35 7692.54 958.292 7802.87 910.702C7913.19 863.111 8034.33 839.316 8161.96 839.316C8283.1 839.316 8395.58 860.948 8495.09 904.212C8594.6 947.476 8681.13 1008.05 8754.67 1085.92C8828.22 1163.8 8882.3 1254.65 8919.08 1360.65C8955.85 1466.64 8970.99 1583.46 8966.67 1711.09L8962.34 1832.23H7456.75L7417.82 1613.74H8763.33L8700.59 1672.15V1589.95C8696.27 1507.75 8672.47 1427.71 8627.05 1349.83C8583.78 1271.96 8521.05 1209.22 8441.01 1161.63C8360.97 1114.04 8265.79 1088.08 8155.47 1088.08C8025.68 1088.08 7915.35 1114.04 7820.17 1165.96C7724.99 1217.88 7653.61 1295.75 7601.69 1395.26C7549.77 1496.93 7525.98 1622.39 7525.98 1771.66C7525.98 1920.92 7554.1 2037.73 7608.18 2143.73C7664.42 2249.72 7742.3 2329.76 7846.13 2388.17C7949.96 2446.57 8073.27 2474.7 8218.2 2474.7C8302.57 2474.7 8389.09 2459.55 8473.46 2431.43C8557.82 2403.31 8650.84 2344.9 8752.51 2260.54L8886.63 2446.57C8832.55 2500.65 8769.82 2546.08 8696.27 2587.18C8622.72 2628.28 8542.68 2660.73 8453.99 2684.53C8371.79 2710.48 8283.1 2721.3 8190.08 2721.3Z" fill="#0D659D"/>
<path d="M9336.58 2686.69V880.417H9596.16L9602.65 1291.42L9550.74 1308.73C9570.21 1239.51 9600.49 1176.77 9641.59 1120.53C9684.86 1064.29 9734.61 1014.53 9795.18 973.434C9855.75 932.333 9920.64 899.885 9992.03 878.253C10063.4 856.621 10139.1 845.805 10217 845.805C10312.2 845.805 10396.5 860.947 10472.3 893.395C10548 923.68 10610.7 977.761 10662.6 1053.47C10714.5 1129.18 10753.5 1226.53 10781.6 1349.83L10718.9 1319.55L10742.7 1261.14C10766.5 1207.06 10798.9 1157.31 10844.3 1107.55C10889.8 1057.8 10941.7 1014.53 11000.1 973.434C11058.5 934.496 11123.4 904.211 11194.8 882.579C11264 860.947 11337.5 850.131 11411.1 850.131C11538.7 850.131 11644.7 876.089 11733.4 932.333C11819.9 986.413 11887 1068.61 11932.4 1178.94C11977.8 1289.26 11999.5 1429.87 11999.5 1600.76V2691.01H11733.4V1613.74C11733.4 1494.76 11718.3 1395.26 11688 1319.55C11657.7 1243.83 11614.4 1185.43 11553.9 1148.65C11493.3 1111.88 11419.7 1092.41 11331.1 1092.41C11253.2 1092.41 11179.6 1105.39 11114.7 1131.35C11049.8 1157.31 10991.4 1194.08 10946 1241.67C10898.4 1289.26 10861.6 1343.34 10835.7 1401.75C10809.7 1462.32 10796.7 1527.21 10796.7 1596.44V2691.01H10532.8V1611.58C10532.8 1496.93 10517.7 1399.58 10485.2 1323.87C10452.8 1248.16 10409.5 1189.75 10349 1150.82C10288.4 1111.88 10214.8 1092.41 10128.3 1092.41C10052.6 1092.41 9981.21 1105.39 9916.32 1131.35C9851.42 1157.31 9795.18 1194.08 9747.59 1239.51C9700 1284.93 9663.22 1339.02 9637.27 1399.58C9611.31 1460.15 9598.33 1525.05 9598.33 1594.27V2691.01L9336.58 2686.69Z" fill="#0D659D"/>
<path d="M14465.5 2721.29C14309.8 2721.29 14167 2680.19 14039.4 2597.98C13911.7 2515.78 13812.2 2403.3 13738.7 2262.69C13665.1 2119.92 13628.4 1959.84 13628.4 1780.29C13628.4 1600.75 13667.3 1436.34 13743 1295.74C13818.7 1155.13 13920.4 1044.81 14050.2 962.605C14177.8 882.566 14322.8 841.465 14480.7 841.465C14575.8 841.465 14662.4 854.445 14744.6 882.566C14824.6 910.688 14898.2 949.626 14960.9 999.38C15023.6 1049.13 15077.7 1107.54 15121 1172.44C15164.2 1237.33 15192.4 1308.72 15209.7 1384.43L15134 1345.49L15144.8 878.24H15404.4V2684.51H15140.4V2245.38L15209.7 2199.96C15192.4 2269.18 15162.1 2336.24 15116.6 2398.97C15071.2 2461.7 15015 2517.95 14947.9 2567.7C14880.9 2617.45 14807.3 2654.23 14727.3 2682.35C14640.7 2708.31 14554.2 2721.29 14465.5 2721.29ZM14523.9 2472.52C14642.9 2472.52 14751.1 2442.23 14846.2 2383.83C14941.4 2325.42 15015 2243.22 15069.1 2137.22C15123.1 2033.39 15151.3 1912.25 15151.3 1778.13C15151.3 1644.01 15125.3 1525.04 15069.1 1421.2C15012.8 1317.37 14939.3 1235.17 14846.2 1174.6C14751.1 1114.03 14645.1 1083.74 14523.9 1083.74C14402.8 1083.74 14294.6 1114.03 14199.4 1174.6C14106.4 1235.17 14032.9 1317.37 13978.8 1421.2C13924.7 1525.04 13896.6 1644.01 13896.6 1778.13C13896.6 1912.25 13922.6 2026.9 13976.6 2132.9C14030.7 2236.73 14104.3 2321.09 14197.3 2379.5C14292.5 2442.23 14400.6 2472.52 14523.9 2472.52Z" fill="#0D659D"/>
<path d="M12862.6 1135.67V2178.34C12862.6 2375.19 12964.3 2409.8 13182.7 2392.49V2667.22C12899.4 2723.46 12598.7 2699.67 12603 2232.42V1135.67H12362.9V897.72H12603V313.656H12862.6V897.72H13182.7V1135.67H12862.6Z" fill="#0D659D"/>
<path d="M6909.46 1129.18V2171.84C6909.46 2368.69 7013.29 2403.3 7233.94 2386V2667.21C6948.4 2723.46 6643.39 2699.66 6649.88 2228.09V1127.02V889.064V305H6909.46V889.064V1129.18Z" fill="#0D659D"/>
<path d="M2279.14 3213.16C2289.96 3223.98 2299.23 3234.79 2310.05 3244.07C2363.37 3290.43 2442.19 3290.43 2494.73 3243.29C2499.37 3238.66 2504.78 3234.02 2509.42 3229.39C2781.42 2957.39 3054.19 2685.39 3325.42 2412.61C3420.46 2316.79 3515.51 2222.52 3610.55 2126.7C3638.37 2098.88 3671.6 2081.89 3711.01 2082.66C3768.96 2082.66 3813.78 2109.7 3838.51 2162.25C3864.01 2214.79 3856.28 2265.79 3820.74 2311.39C3815.33 2318.34 3809.14 2324.52 3802.96 2330.7C3723.37 2411.07 3643.78 2490.66 3563.42 2570.25C3275.19 2856.16 2989.28 3143.61 2701.83 3430.29C2639.23 3492.89 2565.05 3535.39 2476.96 3550.07C2336.33 3574.02 2214.23 3536.16 2110.69 3438.79C2103.73 3431.84 2096.01 3424.89 2089.83 3417.93C2084.42 3411.75 2080.55 3411.75 2075.14 3417.93C2064.33 3429.52 2053.51 3440.34 2042.69 3450.39C1956.92 3533.84 1853.37 3569.39 1735.14 3556.25C1655.55 3546.98 1586.01 3513.75 1527.28 3459.66C1522.64 3455.02 1517.23 3450.39 1512.6 3445.75C1046.64 2979.79 579.916 2513.84 113.962 2047.89C59.8708 1993.79 22.7799 1931.2 8.09811 1856.25C-15.8564 1735.7 13.5072 1627.52 93.8708 1534.02C100.053 1527.07 106.234 1520.11 113.189 1513.93C579.916 1047.2 1047.42 580.476 1514.14 112.976C1569.78 57.3393 1635.46 20.2484 1713.51 6.33931C1837.92 -15.2971 1946.87 18.7029 2038.83 104.476C2054.28 119.157 2068.96 135.385 2083.64 150.839C2093.69 144.657 2099.87 136.93 2106.05 130.748C2171.73 65.0666 2249.78 24.112 2340.96 11.7484C2469.23 -6.02436 2582.83 28.7484 2680.96 113.748C2690.23 122.248 2698.73 130.748 2708.01 139.248C2965.33 396.567 3221.87 654.658 3480.73 910.43C3578.87 1007.79 3677.01 1105.93 3775.14 1202.52C3799.87 1226.48 3815.33 1255.07 3819.96 1289.84C3830.01 1362.48 3775.92 1435.11 3703.28 1445.16C3653.83 1452.11 3612.1 1436.66 3577.33 1401.88C3422.01 1246.57 3266.69 1091.25 3110.6 935.158C2909.69 734.249 2708.78 533.339 2507.87 332.43C2485.46 310.021 2460.73 293.794 2428.28 287.612C2385.78 279.885 2347.14 289.93 2313.92 317.748C2303.1 327.021 2294.6 338.612 2284.55 349.43C2286.87 354.067 2292.28 357.93 2296.92 362.567C2580.51 646.158 2864.1 928.976 3147.69 1213.34C3172.42 1238.07 3196.37 1263.57 3220.33 1289.84C3255.1 1327.7 3254.33 1383.34 3218.78 1418.11C3182.46 1453.66 3125.28 1455.2 3088.96 1418.11C3041.83 1370.98 2995.46 1323.07 2948.33 1275.93C2943.69 1271.29 2939.05 1265.88 2934.42 1261.25C2677.87 1004.7 2421.33 748.158 2164.78 492.385C2160.92 488.521 2157.83 483.885 2155.51 480.794C2147.01 480.794 2144.69 486.203 2141.6 489.294C1742.87 884.93 1345.69 1282.11 948.507 1679.29C888.235 1739.57 888.235 1823.02 948.507 1884.07C1344.92 2280.48 1742.1 2676.89 2138.51 3074.07C2140.83 3076.39 2143.92 3078.7 2146.23 3081.79C2152.42 3079.48 2156.28 3074.07 2160.14 3070.2C2428.28 2802.84 2696.42 2534.7 2963.78 2266.57C3015.55 2214.79 3067.33 2163.79 3119.1 2112.79C3145.37 2086.52 3177.05 2078.02 3212.6 2088.84C3275.19 2108.16 3298.37 2183.11 3257.42 2234.11C3252.78 2240.29 3246.6 2245.7 3241.19 2251.89C2923.6 2569.48 2606.01 2886.29 2288.42 3203.89C2286.1 3205.43 2283.78 3209.29 2279.14 3213.16ZM1895.1 224.248C1861.87 197.203 1823.23 184.067 1780.73 183.294C1725.87 183.294 1681.05 204.93 1642.42 243.567C1177.23 709.521 711.28 1174.7 245.325 1640.66C239.144 1647.61 232.189 1653.79 226.78 1660.75C189.689 1707.89 176.553 1761.2 190.462 1820.7C198.962 1858.57 219.825 1889.48 246.871 1916.52C712.053 2380.93 1176.46 2845.34 1641.64 3310.52C1646.28 3315.16 1650.14 3319.02 1654.78 3323.66C1725.87 3389.34 1834.83 3388.57 1905.92 3323.66C1915.96 3314.39 1925.23 3304.34 1935.28 3295.07C1946.1 3284.25 1946.1 3272.66 1935.28 3261.84C1545.05 2871.61 1154.05 2481.39 763.825 2090.39C756.871 2083.43 749.916 2076.48 742.962 2069.52C640.962 1957.48 605.416 1826.88 640.189 1679.29C658.735 1601.25 698.916 1536.34 755.325 1479.93C1150.19 1085.84 1544.28 690.976 1939.14 296.885C1943.78 292.248 1949.19 287.612 1956.14 282.203C1933.73 261.339 1915.96 241.248 1895.1 224.248Z" fill="#0D659D"/>
</svg>
